<?xml version="1.0" encoding="UTF-8"?>
<svg version="1.1" xmlns="http://www.w3.org/2000/svg" width="365" height="400">
<path d="M0 0 C24.87898278 -0.72130272 48.64738784 5.11385454 70.36328125 17.15625 C71.98169922 18.0225 71.98169922 18.0225 73.6328125 18.90625 C80.88233783 22.92652592 87.12120794 27.72197441 93.36328125 33.15625 C94.21921875 33.878125 95.07515625 34.6 95.95703125 35.34375 C120.31829675 56.39669549 136.8409413 88.95437659 139.36328125 121.15625 C141.01601538 160.5075256 131.84713788 195.77369834 104.92578125 225.40625 C82.32841366 249.52619136 50.19227377 267.82914821 16.48217773 269.28027344 C-24.00307606 270.25227953 -58.51216938 259.91808962 -88.63671875 232.15625 C-89.4565625 231.41890625 -90.27640625 230.6815625 -91.12109375 229.921875 C-113.58483203 208.73267506 -128.4240006 176.09632511 -129.76123047 145.28759766 C-130.73884841 105.66674629 -120.30528665 71.42415708 -92.63671875 42.15625 C-90.9897739 40.47009218 -89.32545754 38.80054829 -87.63671875 37.15625 C-87.17523438 36.64964844 -86.71375 36.14304688 -86.23828125 35.62109375 C-64.90234901 12.7760346 -30.49378939 1.31015207 0 0 Z M-84.63671875 42.15625 C-85.30445313 42.75050781 -85.9721875 43.34476563 -86.66015625 43.95703125 C-109.23245414 65.31063701 -122.97614627 97.67079701 -123.83984375 128.5546875 C-124.33043814 165.49119945 -112.8389644 198.13064174 -87.15966797 225.10229492 C-63.91700652 248.72466026 -32.49345502 263.01676675 0.8034668 263.39770508 C12.6803556 263.42672365 23.82962722 263.06617089 35.36328125 260.15625 C36.00700684 259.99527832 36.65073242 259.83430664 37.31396484 259.66845703 C58.70069902 254.14262177 77.47101818 243.41786771 93.36328125 228.15625 C94.25789062 227.32480469 95.1525 226.49335938 96.07421875 225.63671875 C118.59112343 204.09743878 132.50530336 173.10145136 133.640625 141.953125 C134.47660433 103.26286799 121.56924339 70.31987582 94.73828125 42.15625 C70.26912979 18.40125196 36.92081631 5.84696101 3.01538086 5.97729492 C-30.58962187 6.49418217 -59.81037166 20.04005671 -84.63671875 42.15625 Z " fill="#4C4847" transform="translate(176.63671875,63.84375)"/>
<path d="M0 0 C-0.1015625 2.33203125 -0.1015625 2.33203125 -1 5 C-3.7109375 6.44921875 -3.7109375 6.44921875 -7.375 7.6875 C-45.35148863 21.51395888 -76.76083948 50.63543192 -94.00048828 87.1171875 C-96.09243685 91.70665578 -98.05055478 96.34860351 -100 101 C-100.8068956 102.83580686 -101.61828551 104.66965714 -102.4375 106.5 C-102.953125 107.655 -103.46875 108.81 -104 110 C-105.65 109.67 -107.3 109.34 -109 109 C-108.4442505 103.18778649 -106.80416463 98.40816194 -104.5 93.0625 C-104.14615234 92.23492187 -103.79230469 91.40734375 -103.42773438 90.5546875 C-98.00065615 78.14179054 -91.3612608 66.67568387 -83 56 C-82.34902344 55.14535156 -81.69804688 54.29070312 -81.02734375 53.41015625 C-66.75305613 35.24045555 -26.10248725 -6.34925366 0 0 Z " fill="#4C4847" transform="translate(132,41)"/>
<path d="M0 0 C2.89698294 1.05153514 5.69483369 2.28824211 8.5 3.5625 C9.29245117 3.92037598 10.08490234 4.27825195 10.90136719 4.64697266 C28.40880042 12.68911955 43.68534685 23.14491213 57.48144531 36.53271484 C58.91710362 37.91990238 60.37589527 39.28303181 61.8359375 40.64453125 C78.56724793 56.63276056 96.43643587 81.78098692 101 105 C100.6875 108.0625 100.6875 108.0625 100 110 C97.6640625 109.921875 97.6640625 109.921875 95 109 C93.8569274 106.68859352 93.10815426 104.69326287 92.375 102.25 C86.94868764 86.23173151 78.5561185 71.20002979 68 58 C67.53480957 57.41669922 67.06961914 56.83339844 66.59033203 56.23242188 C48.91331675 34.33253125 25.62723334 16.27754293 -1.32592773 7.46948242 C-3.52734375 6.703125 -3.52734375 6.703125 -7 5 C-8.00390625 2.296875 -8.00390625 2.296875 -8 0 C-5.01930196 -1.49034902 -3.23692755 -0.74612665 0 0 Z " fill="#4C4847" transform="translate(241,41)"/>
<path d="M0 0 C2.125 0.9375 2.125 0.9375 4 2 C-0.15869921 30.88302055 -28.38402397 62.03506133 -50.76953125 78.8671875 C-86.50582252 105.10465055 -86.50582252 105.10465055 -102 104 C-102.33 102.68 -102.66 101.36 -103 100 C-99.04704565 97.47828774 -94.93506618 95.61979507 -90.625 93.8125 C-71.92211539 85.75180197 -56.06956452 75.57405114 -41.42822266 61.37695312 C-40.16080274 60.15503033 -38.86913701 58.95836774 -37.57421875 57.765625 C-22.83834967 43.8411448 -12.23647647 25.18517045 -4.51098633 6.6237793 C-2.19181004 1.09590502 -2.19181004 1.09590502 0 0 Z " fill="#4C4847" transform="translate(336,252)"/>
<path d="M0 0 C3 1 3 1 3.9921875 2.66381836 C4.28351562 3.38190674 4.57484375 4.09999512 4.875 4.83984375 C5.2143457 5.64647461 5.55369141 6.45310547 5.90332031 7.28417969 C6.44617676 8.59757324 6.44617676 8.59757324 7 9.9375 C24.6954929 50.74964836 56.9197478 80.27603756 97.95263672 96.78564453 C102.90088262 98.78937556 102.90088262 98.78937556 104 101.125 C104 101.74375 104 102.3625 104 103 C103.67 103.33 103.34 103.66 103 104 C96.93382204 103.61165748 92.12286177 102.14618337 86.625 99.625 C85.85188477 99.2741333 85.07876953 98.9232666 84.28222656 98.56176758 C60.59853875 87.49804726 38.88999903 70.80412836 23 50 C21.89398438 48.61748047 21.89398438 48.61748047 20.765625 47.20703125 C12.01012146 36.02112069 -3.05367471 15.75144589 -2 1 C-1.34 0.67 -0.68 0.34 0 0 Z " fill="#4C4847" transform="translate(28,252)"/>
<path d="M0 0 C0.99 0 1.98 0 3 0 C3.10957031 1.24136719 3.21914062 2.48273438 3.33203125 3.76171875 C3.49153887 5.40370897 3.6517312 7.04563278 3.8125 8.6875 C3.88275391 9.50412109 3.95300781 10.32074219 4.02539062 11.16210938 C4.49099192 15.76225015 4.97233283 19.3089279 8 23 C10.78364433 24.65136467 13.122904 25.3122904 16.328125 25.6328125 C17.12734375 25.71660156 17.9265625 25.80039062 18.75 25.88671875 C19.9875 26.00466797 19.9875 26.00466797 21.25 26.125 C22.09046875 26.21136719 22.9309375 26.29773438 23.796875 26.38671875 C25.86388223 26.59811722 27.93185928 26.79999462 30 27 C30 27.66 30 28.32 30 29 C28.84242188 29.10957031 27.68484375 29.21914063 26.4921875 29.33203125 C24.95306137 29.49157481 23.41400221 29.65176539 21.875 29.8125 C21.11445313 29.88275391 20.35390625 29.95300781 19.5703125 30.02539062 C14.83306942 30.53586941 11.07754821 31.34181208 7 34 C2.92292056 40.09582752 3.31607167 48.94833208 3 56 C2.01 56 1.02 56 0 56 C-0.03738281 55.0821875 -0.07476562 54.164375 -0.11328125 53.21875 C-0.56396465 43.22357089 -0.56396465 43.22357089 -4 34 C-8.80794348 30.93172462 -13.33486835 30.32425792 -18.875 29.8125 C-19.65875 29.73064453 -20.4425 29.64878906 -21.25 29.56445312 C-23.16561529 29.36588325 -25.08269042 29.18148253 -27 29 C-27 28.34 -27 27.68 -27 27 C-25.77023438 26.90203125 -24.54046875 26.8040625 -23.2734375 26.703125 C-21.64054288 26.55297377 -20.00773452 26.40188228 -18.375 26.25 C-17.56675781 26.188125 -16.75851563 26.12625 -15.92578125 26.0625 C-10.63413356 25.54624169 -7.19224251 24.52961889 -3 21 C-0.04637327 14.53015098 -0.36929449 7.00687707 0 0 Z " fill="#4C4847" transform="translate(180,344)"/>
<path d="M0 0 C0.99 0 1.98 0 3 0 C3.10957031 1.24136719 3.21914062 2.48273438 3.33203125 3.76171875 C3.49153887 5.40370897 3.6517312 7.04563278 3.8125 8.6875 C3.88275391 9.50412109 3.95300781 10.32074219 4.02539062 11.16210938 C4.48652123 15.71807977 4.86473401 19.44307134 8 23 C12.56660287 25.12929577 17.41539934 25.57791928 22.375 26.125 C23.11105469 26.21136719 23.84710938 26.29773438 24.60546875 26.38671875 C26.40299182 26.59681885 28.20141342 26.79920767 30 27 C30 27.66 30 28.32 30 29 C28.15535156 29.14695312 28.15535156 29.14695312 26.2734375 29.296875 C24.64054288 29.44702623 23.00773452 29.59811772 21.375 29.75 C20.56675781 29.811875 19.75851563 29.87375 18.92578125 29.9375 C13.64418401 30.45277778 10.15934641 31.43949533 6 35 C3.44642922 41.68792348 3.41109363 48.9032258 3 56 C2.01 56 1.02 56 0 56 C-0.03738281 55.0821875 -0.07476562 54.164375 -0.11328125 53.21875 C-0.606348 43.24154836 -0.606348 43.24154836 -4 34 C-8.36256533 30.48641174 -12.93194937 30.27538873 -18.3125 29.8125 C-19.14845703 29.73064453 -19.98441406 29.64878906 -20.84570312 29.56445312 C-22.89609388 29.36527231 -24.94793562 29.18112718 -27 29 C-27 28.34 -27 27.68 -27 27 C-25.26363281 26.83564453 -25.26363281 26.83564453 -23.4921875 26.66796875 C-21.95306137 26.50842519 -20.41400221 26.34823461 -18.875 26.1875 C-18.11445313 26.11724609 -17.35390625 26.04699219 -16.5703125 25.97460938 C-11.82481429 25.46324103 -8.10727207 24.62112935 -4 22 C-0.24112792 15.13033723 -0.31361092 7.69968869 0 0 Z " fill="#4C4847" transform="translate(181,0)"/>
<path d="M0 0 C0.66 0 1.32 0 2 0 C2.66 4.62 3.32 9.24 4 14 C8.29 14.66 12.58 15.32 17 16 C17 16.66 17 17.32 17 18 C13.04 18.66 9.08 19.32 5 20 C3.41744803 24.32564205 2.54855348 28.428721 2 33 C1.34 33 0.68 33 0 33 C-0.13277344 32.22914063 -0.26554687 31.45828125 -0.40234375 30.6640625 C-0.57894531 29.66117188 -0.75554687 28.65828125 -0.9375 27.625 C-1.11152344 26.62726563 -1.28554688 25.62953125 -1.46484375 24.6015625 C-1.87712062 22.03090344 -1.87712062 22.03090344 -3 20 C-6.0399648 19.30662208 -6.0399648 19.30662208 -9.5625 18.875 C-10.76003906 18.70742187 -11.95757812 18.53984375 -13.19140625 18.3671875 C-14.11824219 18.24601562 -15.04507812 18.12484375 -16 18 C-16 17.34 -16 16.68 -16 16 C-9.07 15.01 -9.07 15.01 -2 14 C-1.34 9.38 -0.68 4.76 0 0 Z " fill="#4C4847" transform="translate(348,185)"/>
<path d="M0 0 C0.66 0 1.32 0 2 0 C2.66 4.62 3.32 9.24 4 14 C8.62 14.66 13.24 15.32 18 16 C18 16.66 18 17.32 18 18 C17.08476563 18.08636719 16.16953125 18.17273438 15.2265625 18.26171875 C14.03804687 18.40222656 12.84953125 18.54273438 11.625 18.6875 C10.44164063 18.81511719 9.25828125 18.94273437 8.0390625 19.07421875 C4.8416696 19.67555062 4.8416696 19.67555062 3.625 22.3125 C3.07858952 24.66206507 2.61888199 26.91432707 2.375 29.3125 C2.25125 30.529375 2.1275 31.74625 2 33 C1.34 33 0.68 33 0 33 C-0.13277344 32.22914063 -0.26554688 31.45828125 -0.40234375 30.6640625 C-0.57894531 29.66117188 -0.75554688 28.65828125 -0.9375 27.625 C-1.11152344 26.62726563 -1.28554687 25.62953125 -1.46484375 24.6015625 C-1.87712062 22.03090344 -1.87712062 22.03090344 -3 20 C-5.80980673 19.30772968 -5.80980673 19.30772968 -9.0625 18.875 C-10.16722656 18.70742187 -11.27195312 18.53984375 -12.41015625 18.3671875 C-13.26480469 18.24601562 -14.11945312 18.12484375 -15 18 C-15 17.34 -15 16.68 -15 16 C-10.71 15.34 -6.42 14.68 -2 14 C-1.34 9.38 -0.68 4.76 0 0 Z " fill="#4C4847" transform="translate(15,185)"/>
</svg>
